<svg width="499" height="200" viewBox="0 0 499 200" fill="none" xmlns="http://www.w3.org/2000/svg">
<path d="M190.115 83.1334C190.115 102.014 190.066 120.871 190.163 139.752C190.163 142.324 189.581 143.174 186.91 143.052C181.691 142.761 176.473 142.761 171.278 143.052C168.098 143.247 167.758 142.033 167.783 139.339C167.88 101.82 167.783 64.301 167.904 26.7816C167.904 23.7723 167.2 22.8743 164.142 23.02C158.486 23.2869 152.83 23.02 147.174 23.1413C145.426 23.1656 144.892 22.6802 144.941 20.9086C145.062 15.6908 145.062 10.4731 144.941 5.25533C144.892 3.21677 145.693 2.92555 147.441 2.94981C168.535 2.99835 189.605 2.99835 210.699 2.94981C212.617 2.94981 213.102 3.53225 213.078 5.37668C212.981 10.4731 212.908 15.5938 213.078 20.6902C213.151 22.9471 212.277 23.1898 210.408 23.1413C204.63 23.0442 198.853 23.2626 193.125 23.02C190.479 22.9229 190.066 23.8208 190.066 26.1749C190.188 45.177 190.139 64.1551 190.139 83.1334" fill="white"/>
<path d="M492.01 3.11978V22.9472C485.577 22.9715 479.144 23.1657 472.715 22.9715C470.043 22.8987 469.459 23.7238 469.459 26.272C469.534 63.9853 469.459 101.699 469.606 139.436C469.606 142.422 468.829 143.125 465.964 143.004C460.99 142.761 455.987 142.761 450.987 143.004C448.22 143.125 447.321 142.567 447.321 139.509C447.469 101.869 447.37 64.3011 447.492 26.6846C447.492 23.5297 446.544 22.8987 443.656 22.9958C438.121 23.2142 432.564 22.9958 427.029 23.0928C425.138 23.1171 424.239 22.8259 424.311 20.6174C424.482 15.521 424.406 10.4004 424.311 5.30396C424.311 3.72649 424.554 2.90137 426.446 2.90137C448.295 3.02271 470.115 3.07125 491.964 3.09551" fill="white"/>
<path d="M331.026 72.6976C331.026 95.1219 330.977 117.546 331.098 139.946C331.098 142.494 330.443 143.101 327.993 143.004C322.555 142.81 317.117 142.858 311.68 143.004C309.641 143.052 308.864 142.664 308.864 140.359C308.937 95.413 308.937 50.4435 308.864 5.498C308.864 3.45944 309.374 2.85272 311.413 2.90126C316.948 3.04687 322.506 3.11968 328.066 2.90126C330.734 2.77992 331.075 3.79922 331.049 6.10472C331.003 28.2862 331.049 50.4921 331.049 72.6734" fill="white"/>
<path d="M288.667 122.813C288.619 114.27 288.983 105.728 288.206 97.2093C287.332 87.6234 284.128 79.2748 274.734 74.7122C274.831 74.5181 274.952 74.3483 275.098 74.1784C275.341 73.9601 275.608 73.766 275.899 73.6204C282.38 69.7371 286.677 63.0391 287.527 55.5158C288.57 46.585 288.716 37.5814 287.964 28.6263C287.769 24.1851 286.507 19.841 284.298 15.958C279.54 7.77952 270.68 2.90153 261.238 3.24129C249.028 2.73165 236.818 3.09568 224.608 2.9258C222.108 2.87726 222.351 4.26057 222.351 5.83804C222.351 50.565 222.351 95.2922 222.302 139.995C222.302 142.179 222.642 143.126 225.118 143.053C230.653 142.858 236.211 142.883 241.746 143.053C244.1 143.126 244.683 142.397 244.683 140.092C244.586 125.215 244.634 110.339 244.634 95.4863C244.634 88.5938 248.098 85.528 255.024 86.2886C259.854 86.4827 263.956 89.8558 265.097 94.5398C265.801 96.7725 266.166 99.0781 266.19 101.408C266.214 111.067 266.263 120.701 266.287 130.36C266.287 133.903 266.699 137.447 267.573 140.893C267.889 142.131 268.229 143.053 269.928 143.029C276.797 142.932 283.667 142.98 290.876 142.98C288.765 136.476 287.988 129.608 288.594 122.789M264.539 43.406C262.67 44.2309 261.845 46.4394 262.67 48.3079C262.719 48.4053 262.767 48.5024 262.816 48.5994C264.199 52.0696 265.17 55.6857 266.554 59.9814C262.719 57.2148 259.49 54.982 256.383 52.5552C255.267 51.4388 253.47 51.4388 252.353 52.5552C252.353 52.5552 252.329 52.5794 252.305 52.6037C249.368 54.885 246.309 57.0447 243.299 59.2532L242.595 58.7437C243.809 55.1034 244.95 51.4388 246.236 47.8227C246.989 46.5122 246.528 44.862 245.241 44.1096C245.168 44.0611 245.12 44.0368 245.047 44.0125C241.746 41.8283 238.663 39.3043 234.658 36.2952C239.464 36.2952 243.372 36.1981 247.256 36.3437C248.761 36.6348 250.193 35.6398 250.485 34.1594C250.485 34.1109 250.485 34.0381 250.509 33.9653C251.601 30.1795 252.936 26.4663 254.392 22.0495C255.825 26.5877 257.111 30.3251 258.204 34.1352C258.398 35.567 259.733 36.562 261.165 36.3437C261.189 36.3437 261.238 36.3437 261.262 36.3437C265.146 36.2224 269.006 36.2952 273.982 36.2952C270.365 39.0617 267.549 41.3916 264.539 43.406Z" fill="white"/>
<path d="M416.905 81.9201C416.905 65.0532 417.174 48.1866 416.662 31.3442C416.954 15.8123 405.036 2.78003 389.548 1.73648L378.698 1.6394C365.325 1.93063 353.938 11.5167 351.39 24.646C350.03 31.7325 349.594 38.9646 350.079 46.1479C350.079 68.5479 349.836 90.9722 350.321 113.372C349.692 125.264 356.341 136.354 367.121 141.402C371.803 143.416 376.853 144.484 381.951 144.533C402.413 145.576 415.813 133.952 416.712 113.566C417.174 103.058 416.905 92.501 416.905 81.9686M394.794 72.8433V110.484C394.794 112.037 394.646 113.591 394.38 115.095C393.433 121.09 387.8 125.167 381.807 124.22C377.072 123.468 373.358 119.731 372.656 114.974C372.338 113.008 372.171 111.018 372.194 109.028C372.171 84.9535 372.171 60.9033 372.194 36.8289C372.171 35.0571 372.292 33.2856 372.558 31.5383C372.679 25.8109 377.413 21.2727 383.141 21.3941C383.967 21.3941 384.79 21.5154 385.594 21.7338C389.718 22.0493 393.141 25.0101 394.066 29.0386C394.623 31.1985 394.889 33.4069 394.839 35.6155C394.794 48.041 394.794 60.4424 394.794 72.8433Z" fill="white"/>
<path d="M144.796 138.175C140.621 112.256 136.494 86.3368 132.367 60.4181C129.455 42.168 126.493 23.9181 123.653 5.66808C123.313 3.43536 122.391 2.82866 120.206 2.90146C115.764 3.07135 111.322 2.95 106.904 2.95C102.486 2.95 97.8016 3.02281 93.2622 2.90146C91.4176 2.85293 90.6163 3.26549 90.3252 5.32831C88.4075 18.0451 86.3199 30.7133 84.2809 43.3814C79.0862 75.7558 73.8675 108.106 68.6242 140.48C68.2603 142.689 68.9642 143.028 70.9547 143.004C76.0521 142.883 81.1494 142.883 86.2714 143.004C88.1891 143.053 88.9416 142.543 89.1842 140.504C90.0094 133.806 91.1747 127.133 92.0727 120.458C92.3399 118.42 92.9226 117.522 95.277 117.571C102.365 117.765 109.477 117.74 116.565 117.571C118.896 117.522 119.551 118.347 119.818 120.507C120.643 127.108 121.736 133.661 122.585 140.237C122.877 142.422 123.75 143.077 125.959 143.004C130.935 142.81 135.936 142.955 140.936 142.955C145.646 142.955 145.548 142.98 144.796 138.175ZM113.677 98.3984C108.458 98.2771 103.239 98.2043 98.0442 98.3984C95.5685 98.4955 95.4957 97.5247 95.7868 95.5834C97.9714 81.4591 100.059 67.3345 102.171 53.186C103.263 45.8811 104.355 38.5765 105.448 31.2715H106.225C107.632 40.4207 109.04 49.5699 110.4 58.7437C112.245 71.1204 113.992 83.5217 115.934 95.8988C116.274 98.1316 115.691 98.4712 113.677 98.4227" fill="white"/>
<path d="M64.8866 27.5097C64.1341 18.7973 59.0364 11.0799 51.3416 6.92997C46.0984 4.2119 40.2728 2.85285 34.3741 2.99846C24.2762 2.99846 14.1782 3.1198 4.08026 2.92565C1.26449 2.87712 0.390625 3.43528 0.390625 6.49315C0.56054 28.6989 0.463445 50.8803 0.463445 73.1105C0.463445 95.3406 0.511992 117.716 0.390625 140.043C0.390625 142.591 1.07029 143.198 3.4977 143.101C8.71659 142.907 13.9355 142.883 19.1301 143.101C21.8002 143.223 22.6498 142.664 22.6255 139.752C22.4556 124.22 22.577 108.688 22.5042 93.1564C22.5042 91.0449 22.9168 90.2442 25.1986 90.3898C28.7668 90.5839 32.3109 90.5111 35.8548 90.4383C50.2007 91.3118 62.7748 80.9249 64.6193 66.6793C66.6826 53.72 66.7557 40.5419 64.8623 27.5583M43.1613 61.777C43.1613 66.4367 39.3744 70.1983 34.7141 70.1983C34.6413 70.1983 34.5682 70.1983 34.5197 70.1983C30.7573 71.0232 26.8492 70.8291 23.2081 69.64C21.072 68.3537 22.6984 63.2573 22.577 59.8596C22.4556 55.4429 22.5527 51.0016 22.577 46.5606C22.577 39.5711 22.6741 32.5819 22.5285 25.5925C22.4799 23.4811 23.111 22.9472 25.1258 23.0443C27.9901 23.2142 30.8787 23.0443 33.7672 23.1171C38.5249 22.7046 42.7243 26.2478 43.1128 30.9802C43.1128 31.15 43.1128 31.3199 43.1371 31.4898C43.8167 41.5613 43.841 51.6813 43.1613 61.7285V61.777Z" fill="white"/>
<path d="M155.889 175.742H151.18V197.195H155.889V175.742Z" fill="white"/>
<path d="M165.333 175.742L174.29 190.133H174.338V175.742H178.756V197.195H174.047L165.114 182.829H165.066V197.195H160.648V175.742H165.333Z" fill="white"/>
<path d="M187.106 191.905C187.349 192.391 187.689 192.803 188.125 193.119C188.587 193.434 189.097 193.677 189.655 193.822C190.237 193.968 190.844 194.041 191.451 194.041C191.912 194.041 192.349 194.017 192.81 193.944C193.272 193.871 193.733 193.75 194.17 193.531C194.583 193.337 194.946 193.046 195.214 192.706C195.505 192.318 195.65 191.857 195.626 191.371C195.65 190.837 195.456 190.328 195.068 189.964C194.655 189.575 194.145 189.26 193.611 189.066C192.956 188.799 192.276 188.58 191.572 188.435C190.796 188.265 190.043 188.047 189.266 187.828C188.465 187.634 187.689 187.391 186.912 187.1C186.184 186.833 185.504 186.445 184.873 185.984C184.266 185.523 183.756 184.94 183.416 184.261C183.028 183.484 182.834 182.611 182.858 181.737C182.834 180.742 183.077 179.747 183.562 178.873C184.023 178.072 184.654 177.368 185.407 176.834C186.184 176.276 187.058 175.888 187.98 175.645C188.926 175.378 189.898 175.257 190.868 175.257C191.961 175.257 193.029 175.378 194.097 175.645C195.068 175.888 196.015 176.3 196.84 176.859C197.641 177.417 198.296 178.145 198.758 178.994C199.243 179.965 199.486 181.057 199.462 182.173H194.874C194.874 181.615 194.728 181.081 194.461 180.572C194.243 180.159 193.927 179.819 193.539 179.552C193.15 179.31 192.689 179.14 192.228 179.043C191.694 178.946 191.16 178.897 190.626 178.897C190.237 178.897 189.849 178.946 189.485 179.019C189.121 179.092 188.781 179.237 188.465 179.455C188.15 179.65 187.907 179.892 187.689 180.208C187.494 180.548 187.373 180.96 187.397 181.348C187.397 181.712 187.47 182.052 187.64 182.368C187.883 182.683 188.223 182.95 188.587 183.096C189.218 183.363 189.873 183.605 190.553 183.751L193.806 184.6C194.218 184.673 194.752 184.819 195.481 185.037C196.233 185.28 196.937 185.62 197.592 186.056C198.321 186.542 198.952 187.173 199.413 187.901C199.947 188.799 200.214 189.818 200.19 190.862C200.19 191.808 199.996 192.731 199.607 193.604C199.219 194.453 198.636 195.206 197.908 195.788C197.083 196.443 196.136 196.929 195.117 197.22C193.854 197.584 192.568 197.754 191.257 197.73C190.092 197.73 188.951 197.584 187.81 197.293C186.742 197.026 185.747 196.565 184.873 195.934C184.023 195.303 183.319 194.502 182.834 193.555C182.324 192.488 182.057 191.323 182.105 190.133H186.693C186.669 190.765 186.79 191.42 187.058 192.002" fill="white"/>
<path d="M219.389 195.546C215.335 198.361 209.97 198.361 205.917 195.546C204.193 193.847 203.319 191.468 203.513 189.066V175.718H208.223V189.066C208.223 189.648 208.271 190.206 208.368 190.789C208.538 191.905 209.291 192.876 210.334 193.337C211.063 193.628 211.839 193.774 212.64 193.749C213.903 193.895 215.189 193.483 216.111 192.633C216.84 191.614 217.18 190.352 217.083 189.09V175.742H221.792V189.09C221.986 191.492 221.088 193.871 219.364 195.57" fill="white"/>
<path d="M238.056 175.742C238.955 175.742 239.828 175.888 240.654 176.203C241.406 176.494 242.062 176.931 242.644 177.489C243.202 178.023 243.615 178.654 243.906 179.358C244.198 180.086 244.343 180.863 244.343 181.664C244.368 182.804 244.101 183.945 243.542 184.94C242.936 185.91 242.037 186.663 240.945 187.051V187.1C241.479 187.245 241.965 187.488 242.377 187.828C242.766 188.168 243.081 188.556 243.299 188.993C243.542 189.454 243.712 189.963 243.809 190.473C243.906 191.007 243.979 191.541 244.028 192.099C244.028 192.439 244.076 192.851 244.101 193.288C244.101 193.749 244.149 194.21 244.198 194.696C244.246 195.157 244.319 195.618 244.44 196.055C244.537 196.443 244.708 196.831 244.95 197.147H240.241C239.95 196.37 239.78 195.545 239.731 194.72C239.683 193.773 239.586 192.876 239.464 192.026C239.392 191.128 239.052 190.255 238.445 189.575C237.741 188.993 236.818 188.701 235.896 188.799H231.187V197.195H226.478V175.742H238.056ZM236.381 185.449C237.255 185.522 238.129 185.255 238.809 184.721C239.416 184.09 239.707 183.241 239.61 182.391C239.683 181.542 239.392 180.717 238.809 180.11C238.105 179.601 237.231 179.334 236.381 179.407H231.211V185.449H236.381Z" fill="white"/>
<path d="M259.491 175.742L267.526 197.195H262.623L260.996 192.414H252.986L251.311 197.195H246.553L254.685 175.742H259.491ZM259.758 188.896L257.064 181.032H257.016L254.224 188.896H259.783H259.758Z" fill="white"/>
<path d="M274.661 175.742L283.618 190.133H283.667V175.742H288.085V197.195H283.351L274.419 182.829H274.37V197.195H269.952V175.742H274.661Z" fill="white"/>
<path d="M306.606 181.47C306.315 181.009 305.975 180.62 305.562 180.281C305.126 179.941 304.664 179.674 304.13 179.48C303.597 179.286 303.038 179.189 302.456 179.189C301.509 179.164 300.586 179.383 299.761 179.795C299.033 180.183 298.402 180.766 297.965 181.445C297.479 182.174 297.139 182.95 296.945 183.799C296.727 184.697 296.63 185.62 296.63 186.542C296.63 187.44 296.727 188.314 296.945 189.163C297.139 189.988 297.479 190.765 297.965 191.468C298.426 192.148 299.057 192.706 299.761 193.095C300.586 193.531 301.533 193.75 302.456 193.701C303.718 193.774 304.956 193.289 305.83 192.366C306.679 191.395 307.213 190.182 307.31 188.896H311.898C311.801 190.158 311.485 191.395 310.976 192.536C310.49 193.58 309.835 194.526 308.985 195.303C308.16 196.079 307.165 196.662 306.097 197.05C304.931 197.463 303.694 197.657 302.456 197.657C300.926 197.657 299.421 197.39 298.013 196.808C296.751 196.274 295.61 195.473 294.688 194.454C293.765 193.434 293.061 192.221 292.6 190.935C292.115 189.527 291.872 188.047 291.896 186.566C291.896 185.061 292.139 183.533 292.6 182.101C293.061 180.79 293.765 179.553 294.688 178.509C295.61 177.49 296.751 176.665 298.013 176.106C300.489 175.087 303.232 174.966 305.805 175.742C306.825 176.058 307.796 176.568 308.645 177.223C309.471 177.878 310.175 178.703 310.684 179.65C311.243 180.669 311.582 181.785 311.704 182.95H307.116C307.043 182.416 306.873 181.907 306.606 181.47Z" fill="white"/>
<path d="M331.777 175.742V179.698H320.417V184.285H330.83V187.949H320.417V193.216H331.997V197.171H315.732V175.718L331.777 175.742Z" fill="white"/>
<path d="M348.334 191.905C348.577 192.391 348.918 192.803 349.354 193.119C349.813 193.434 350.324 193.677 350.882 193.822C351.465 193.968 352.072 194.041 352.679 194.041C353.141 194.041 353.577 194.017 354.039 193.944C354.498 193.871 354.961 193.75 355.397 193.531C355.81 193.337 356.174 193.046 356.443 192.706C356.731 192.318 356.879 191.857 356.852 191.371C356.879 190.837 356.685 190.328 356.295 189.964C355.882 189.575 355.374 189.26 354.839 189.066C354.184 188.799 353.505 188.58 352.8 188.435C352.023 188.265 351.272 188.047 350.495 187.828C349.692 187.634 348.918 187.391 348.141 187.1C347.41 186.833 346.731 186.445 346.102 185.984C345.495 185.523 344.984 184.94 344.643 184.261C344.256 183.484 344.062 182.611 344.085 181.737C344.062 180.742 344.305 179.747 344.79 178.873C345.252 178.072 345.882 177.368 346.636 176.834C347.41 176.276 348.285 175.888 349.206 175.645C350.154 175.378 351.124 175.257 352.095 175.257C353.19 175.257 354.282 175.378 355.324 175.645C356.295 175.888 357.243 176.3 358.069 176.859C358.869 177.417 359.524 178.145 359.987 178.994C360.472 179.965 360.715 181.057 360.688 182.173H356.102C356.102 181.615 355.931 181.081 355.688 180.572C355.469 180.159 355.154 179.819 354.767 179.552C354.354 179.31 353.918 179.14 353.456 179.043C352.921 178.946 352.387 178.897 351.852 178.897C351.465 178.897 351.075 178.946 350.711 179.019C350.347 179.092 350.01 179.237 349.692 179.455C349.377 179.65 349.134 179.892 348.918 180.208C348.698 180.548 348.6 180.96 348.626 181.348C348.626 181.712 348.698 182.052 348.869 182.368C349.111 182.683 349.426 182.95 349.813 183.096C350.446 183.363 351.102 183.605 351.757 183.751L355.01 184.6C355.397 184.673 355.957 184.819 356.685 185.037C357.436 185.28 358.141 185.62 358.797 186.056C359.524 186.542 360.131 187.173 360.616 187.901C361.151 188.799 361.416 189.818 361.393 190.862C361.393 191.808 361.223 192.731 360.836 193.604C360.446 194.453 359.865 195.206 359.134 195.788C358.311 196.443 357.364 196.929 356.344 197.22C355.082 197.584 353.797 197.754 352.485 197.73C351.318 197.73 350.154 197.584 349.039 197.293C347.97 197.026 346.974 196.565 346.102 195.934C345.252 195.303 344.547 194.502 344.062 193.555C343.528 192.488 343.285 191.323 343.334 190.133H347.921C347.898 190.765 348.02 191.42 348.308 192.002" fill="white"/>
<path d="M380.885 175.742V179.698H369.571V184.285H379.961V187.949H369.571V193.216H381.128V197.171H364.862V175.718L380.885 175.742Z" fill="white"/>
<path d="M396.492 175.742C397.39 175.742 398.266 175.888 399.092 176.203C399.82 176.494 400.498 176.931 401.082 177.489C401.639 178.023 402.052 178.654 402.344 179.358C402.633 180.086 402.78 180.863 402.78 181.664C402.803 182.804 402.538 183.945 401.98 184.94C401.371 185.91 400.475 186.663 399.38 187.051V187.1C399.915 187.245 400.4 187.488 400.813 187.828C401.203 188.168 401.518 188.556 401.738 188.993C401.98 189.454 402.148 189.963 402.246 190.473C402.344 191.007 402.416 191.541 402.466 192.099C402.466 192.439 402.512 192.851 402.538 193.288C402.538 193.749 402.587 194.21 402.633 194.696C402.682 195.157 402.754 195.618 402.875 196.055C402.974 196.443 403.144 196.831 403.387 197.147H398.679C398.387 196.37 398.216 195.545 398.167 194.72C398.095 193.773 398.023 192.876 397.902 192.026C397.83 191.128 397.489 190.255 396.882 189.575C396.177 188.993 395.256 188.701 394.331 188.799H389.649V197.195H384.938V175.742H396.492ZM394.82 185.449C395.692 185.522 396.567 185.255 397.246 184.721C397.83 184.09 398.144 183.241 398.046 182.391C398.118 181.542 397.83 180.717 397.246 180.11C396.541 179.601 395.669 179.334 394.82 179.407H389.672V185.449H394.82Z" fill="white"/>
<path d="M411.325 197.195L404.38 175.742H409.236L414.02 190.813H414.066L418.921 175.742H423.777L416.666 197.195H411.325Z" fill="white"/>
<path d="M430.912 175.742H426.203V197.195H430.912V175.742Z" fill="white"/>
<path d="M449.436 181.47C449.144 181.009 448.803 180.62 448.393 180.281C447.954 179.941 447.469 179.674 446.961 179.48C446.426 179.286 445.869 179.189 445.285 179.189C444.338 179.164 443.416 179.383 442.59 179.795C441.862 180.183 441.256 180.766 440.793 181.445C440.308 182.174 439.967 182.95 439.774 183.799C439.557 184.697 439.459 185.62 439.459 186.542C439.459 187.44 439.557 188.314 439.774 189.163C439.967 189.988 440.308 190.765 440.793 191.468C441.256 192.148 441.862 192.706 442.59 193.095C443.416 193.531 444.364 193.75 445.285 193.701C446.548 193.774 447.784 193.289 448.659 192.366C449.508 191.395 450.043 190.182 450.141 188.896H454.728C454.63 190.158 454.315 191.395 453.807 192.536C453.318 193.58 452.666 194.526 451.813 195.303C450.964 196.079 449.993 196.662 448.925 197.05C447.761 197.463 446.521 197.657 445.285 197.657C443.754 197.657 442.249 197.39 440.843 196.808C439.58 196.274 438.439 195.473 437.518 194.454C436.593 193.434 435.892 192.221 435.452 190.935C434.967 189.527 434.725 188.047 434.725 186.566C434.725 185.061 434.967 183.533 435.452 182.101C435.892 180.79 436.62 179.553 437.518 178.509C438.439 177.49 439.557 176.665 440.843 176.106C443.318 175.087 446.062 174.966 448.636 175.742C449.652 176.058 450.626 176.568 451.449 177.223C452.298 177.878 452.98 178.703 453.515 179.65C454.072 180.669 454.413 181.785 454.534 182.95H449.944C449.872 182.416 449.679 181.907 449.41 181.47" fill="white"/>
<path d="M474.58 175.742V179.698H463.269V184.285H473.659V187.949H463.269V193.216H474.849V197.171H458.561V175.718L474.58 175.742Z" fill="white"/>
<path d="M482.226 191.905C482.469 192.391 482.81 192.803 483.246 193.119C483.708 193.434 484.216 193.677 484.774 193.822C485.357 193.968 485.964 194.041 486.57 194.041C487.033 194.041 487.469 194.017 487.931 193.944C488.393 193.871 488.852 193.75 489.292 193.531C489.702 193.337 490.066 193.046 490.334 192.706C490.626 192.318 490.77 191.857 490.747 191.371C490.747 190.837 490.577 190.328 490.187 189.964C489.777 189.575 489.266 189.26 488.731 189.066C488.075 188.799 487.397 188.605 486.692 188.435C485.941 188.265 485.164 188.047 484.387 187.828C483.587 187.634 482.81 187.391 482.033 187.1C481.305 186.833 480.623 186.445 479.993 185.984C479.387 185.523 478.902 184.94 478.538 184.261C478.147 183.484 477.954 182.611 477.977 181.737C477.954 180.742 478.197 179.747 478.682 178.873C479.144 178.072 479.774 177.368 480.528 176.834C481.305 176.276 482.177 175.888 483.102 175.645C484.046 175.378 485.02 175.257 485.99 175.257C487.082 175.257 488.174 175.378 489.216 175.645C490.187 175.888 491.134 176.3 491.961 176.859C492.761 177.417 493.416 178.145 493.879 178.994C494.364 179.965 494.607 181.057 494.584 182.173H489.993C489.993 181.615 489.849 181.081 489.58 180.572C489.364 180.159 489.046 179.819 488.659 179.552C488.246 179.31 487.81 179.14 487.348 179.043C486.813 178.946 486.279 178.897 485.748 178.897C485.357 178.897 484.97 178.946 484.607 179.019C484.243 179.092 483.902 179.237 483.587 179.455C483.269 179.65 483.026 179.892 482.81 180.208C482.59 180.548 482.495 180.936 482.518 181.348C482.518 181.712 482.59 182.052 482.761 182.368C483.003 182.683 483.344 182.95 483.708 183.096C484.338 183.363 484.993 183.605 485.649 183.751L488.902 184.6C489.315 184.673 489.849 184.819 490.577 185.037C491.328 185.28 492.059 185.62 492.689 186.056C493.416 186.542 494.023 187.173 494.508 187.901C495.043 188.799 495.311 189.818 495.285 190.862C495.285 191.808 495.092 192.731 494.728 193.604C494.338 194.453 493.757 195.206 493.029 195.788C492.203 196.443 491.256 196.929 490.236 197.22C488.974 197.584 487.688 197.754 486.377 197.73C485.213 197.73 484.072 197.584 482.931 197.293C481.862 197.026 480.866 196.565 479.993 195.934C479.144 195.303 478.439 194.502 477.954 193.555C477.446 192.488 477.177 191.323 477.226 190.133H481.813C481.79 190.765 481.911 191.42 482.177 192.002" fill="white"/>
<path d="M13.9349 197.681C12.9397 198.118 11.8473 198.336 10.7793 198.336C9.22574 198.361 7.67223 198.069 6.24007 197.463C4.95354 196.904 3.78839 196.104 2.8417 195.06C1.89502 194.017 1.19108 192.779 0.729872 191.444C0.220121 190.012 -0.0226189 188.507 0.00165504 186.979C0.00165504 185.425 0.244394 183.872 0.729872 182.392C1.19108 181.033 1.9193 179.795 2.8417 178.727C3.78839 177.684 4.92928 176.834 6.24007 176.276C7.67223 175.669 9.20148 175.354 10.7793 175.378C11.8959 175.378 12.9882 175.548 14.0563 175.888C15.0758 176.204 16.0467 176.713 16.9206 177.368C18.7169 178.752 19.8577 180.839 20.0277 183.12H15.4156C15.2214 182.028 14.6146 181.057 13.765 180.353C12.8911 179.722 11.8473 179.407 10.7793 179.431C9.80833 179.407 8.86164 179.625 8.01207 180.062C7.25957 180.475 6.62843 181.033 6.16725 181.761C5.68177 182.489 5.34193 183.314 5.14774 184.164C4.92928 185.086 4.83216 186.008 4.83216 186.954C4.83216 187.852 4.92928 188.775 5.14774 189.648C5.34193 190.473 5.68177 191.274 6.16725 192.002C6.62843 192.706 7.25957 193.264 8.01207 193.677C8.86164 194.114 9.80833 194.332 10.7793 194.308C13.3523 194.599 15.6826 192.73 15.9739 190.158C15.9739 189.964 15.9982 189.769 15.9982 189.575H11.1434V185.984H20.3675V197.827H17.309L16.7992 195.351C16.071 196.371 15.0758 197.171 13.9349 197.681Z" fill="white"/>
<path d="M36.6794 175.912C37.5778 175.912 38.5001 176.058 39.3253 176.397C40.0778 176.689 40.7817 177.126 41.3644 177.708C41.9227 178.242 42.3598 178.897 42.6509 179.625C42.9421 180.378 43.1122 181.178 43.088 181.979C43.1122 183.144 42.845 184.309 42.2624 185.328C41.6558 186.323 40.709 187.1 39.6168 187.488V187.537C40.1506 187.682 40.6604 187.925 41.0975 188.289C41.4857 188.629 41.8014 189.017 42.044 189.478C42.287 189.964 42.4811 190.473 42.5781 191.007C42.6752 191.565 42.7722 192.099 42.7965 192.657C42.7965 192.997 42.845 193.41 42.8693 193.871C42.8693 194.356 42.9178 194.817 42.9667 195.327C43.0152 195.812 43.088 196.273 43.2093 196.735C43.3063 197.147 43.4762 197.511 43.7191 197.851H38.8886C38.5971 197.05 38.4273 196.225 38.3788 195.375C38.306 194.405 38.2332 193.483 38.1116 192.609C38.0388 191.662 37.6749 190.789 37.068 190.061C36.3398 189.454 35.3929 189.163 34.4463 189.26H29.6158V197.875H24.8096V175.961H36.6067L36.6794 175.912ZM34.9562 185.838C35.8542 185.911 36.728 185.644 37.4319 185.11C38.0388 184.479 38.3545 183.605 38.2575 182.707C38.3303 181.858 38.0388 181.009 37.4319 180.402C36.728 179.868 35.8299 179.601 34.9562 179.674H29.6644V185.838H34.9562Z" fill="white"/>
<path d="M47.4321 182.416C47.8931 181.057 48.6213 179.819 49.5439 178.751C50.4904 177.708 51.6314 176.859 52.9422 176.301C55.855 175.111 59.1078 175.111 62.0206 176.301C63.3072 176.859 64.4721 177.708 65.3947 178.751C66.3413 179.819 67.0452 181.081 67.5065 182.416C68.0163 183.897 68.259 185.425 68.2347 187.003C68.2347 188.532 67.9921 190.036 67.5065 191.468C67.0452 192.803 66.317 194.041 65.3947 195.084C64.4478 196.128 63.3072 196.953 62.0206 197.487C59.1078 198.652 55.855 198.652 52.9422 197.487C51.6557 196.929 50.4904 196.104 49.5439 195.084C48.597 194.041 47.8931 192.803 47.4321 191.468C46.9222 190.036 46.6793 188.532 46.7036 187.003C46.7036 185.45 46.9465 183.897 47.4321 182.416ZM51.8498 189.672C52.0439 190.498 52.3839 191.298 52.8691 192.026C53.3304 192.73 53.9616 193.288 54.714 193.701C56.4619 194.55 58.5009 194.55 60.2485 193.701C60.9767 193.288 61.6078 192.73 62.0934 192.026C62.579 191.323 62.9186 190.522 63.1127 189.672C63.3314 188.799 63.4285 187.901 63.4285 186.979C63.4285 186.032 63.3314 185.11 63.1127 184.188C62.9186 183.338 62.579 182.513 62.0934 181.785C61.6321 181.081 61.0009 180.499 60.2485 180.086C58.5009 179.237 56.4619 179.237 54.714 180.086C53.9616 180.499 53.3304 181.057 52.8691 181.785C52.3839 182.513 52.0439 183.338 51.8498 184.188C51.6314 185.11 51.5344 186.032 51.5344 186.979C51.5344 187.877 51.6314 188.774 51.8498 189.648V189.672Z" fill="white"/>
<path d="M88.2627 197.851L84.5489 182.926H84.4758L80.8105 197.851H75.9315L70.1299 175.936H74.9364L78.4076 190.861H78.4804L82.2912 175.936H86.8063L90.5443 191.055H90.6171L94.2099 175.936H98.9433L93.0204 197.851H88.2627Z" fill="white"/>
<path d="M100.034 179.965V175.912H118.021V179.965H111.442V197.851H106.612V179.989L100.034 179.965Z" fill="white"/>
<path d="M125.984 175.912V184.333H134.844V175.912H139.674V197.875H134.844V188.41H125.984V197.875H121.153V175.936L125.984 175.912Z" fill="white"/>
</svg>
